<svg width="20" height="20" viewBox="0 0 20 20" fill="none" xmlns="http://www.w3.org/2000/svg">
<circle cx="10" cy="10" r="9.5" fill="#F9F9F9" stroke="#E9EBF1"/>
<path d="M12.8105 11.7778L10.7895 10L12.8105 8.22222C12.8694 8.17047 12.9171 8.10337 12.95 8.02623C12.9829 7.94909 13 7.86403 13 7.77778C13 7.69153 12.9829 7.60647 12.95 7.52933C12.9171 7.45218 12.8694 7.38508 12.8105 7.33333L10.2842 5.11111C10.2138 5.04921 10.1302 5.01151 10.0425 5.00225C9.95493 4.99298 9.86684 5.01251 9.78816 5.05865C9.70948 5.10479 9.64331 5.17572 9.59706 5.26348C9.55081 5.35125 9.52632 5.45238 9.52632 5.55556V8.88889L7.7579 7.33333C7.65739 7.24493 7.53106 7.20697 7.4067 7.22781C7.28233 7.24864 7.17012 7.32657 7.09474 7.44444C7.01936 7.56232 6.987 7.71048 7.00476 7.85635C7.02253 8.00221 7.08897 8.13382 7.18948 8.22222L9.21053 10L7.18948 11.7778C7.13971 11.8216 7.09779 11.8764 7.06609 11.9392C7.0344 12.0019 7.01356 12.0714 7.00476 12.1437C6.99597 12.2159 6.99938 12.2894 7.01482 12.3601C7.03026 12.4308 7.05742 12.4972 7.09474 12.5556C7.13206 12.6139 7.17882 12.6631 7.23235 12.7003C7.28587 12.7374 7.34512 12.7619 7.4067 12.7722C7.46828 12.7825 7.53099 12.7785 7.59125 12.7604C7.6515 12.7423 7.70813 12.7104 7.7579 12.6667L9.52632 11.1111V14.4444C9.52632 14.5476 9.55081 14.6488 9.59706 14.7365C9.64331 14.8243 9.70948 14.8952 9.78816 14.9413C9.86684 14.9875 9.95493 15.007 10.0425 14.9978C10.1302 14.9885 10.2138 14.9508 10.2842 14.8889L12.8105 12.6667C12.8694 12.6149 12.9171 12.5478 12.95 12.4707C12.9829 12.3935 13 12.3085 13 12.2222C13 12.136 12.9829 12.0509 12.95 11.9738C12.9171 11.8966 12.8694 11.8295 12.8105 11.7778ZM10.4737 6.66667L11.7368 7.77778L10.4737 8.88889V6.66667ZM10.4737 13.3333V11.1111L11.7368 12.2222L10.4737 13.3333Z" fill="#AEAEB2"/>
</svg>
