<svg width="343" height="56" viewBox="0 0 343 56" fill="none" xmlns="http://www.w3.org/2000/svg">
<rect width="343" height="56" rx="12" fill="#2DDAA9"/>
<path d="M163.782 32.4961V34.3418H149.14V32.4961H155.31V30.0879H150.827V24.709H159.88V22.9512H150.81V21.1582H162.095V26.4668H153.077V28.2598H162.464V30.0879H157.542V32.4961H163.782ZM176.993 21.5977V23.5137C176.993 25.7109 176.993 27.8906 176.413 31.1953L174.146 31.002C174.743 27.9258 174.743 25.6406 174.761 23.5137V23.3906H165.708V21.5977H176.993ZM178.786 32.1797V34.0254H164.196V32.1797H178.786ZM192.647 20.1387V31.6348H190.397V20.1387H192.647ZM193.069 34.043V35.8359H181.925V30.4746H184.192V34.043H193.069ZM183.876 21.1582C186.337 21.1582 188.253 22.8457 188.253 25.1836C188.253 27.5742 186.337 29.2441 183.876 29.2441C181.415 29.2441 179.499 27.5742 179.499 25.1836C179.499 22.8457 181.415 21.1582 183.876 21.1582ZM183.876 23.1094C182.628 23.0918 181.679 23.8828 181.696 25.1836C181.679 26.5195 182.628 27.293 183.876 27.293C185.089 27.293 186.038 26.5195 186.038 25.1836C186.038 23.8828 185.089 23.0918 183.876 23.1094Z" fill="white"/>
</svg>
