<svg width="343" height="56" viewBox="0 0 343 56" fill="none" xmlns="http://www.w3.org/2000/svg">
<rect width="343" height="56" rx="12" fill="#D1D1D6"/>
<path d="M164.172 32.207V33.7344H150.459V32.207H156.37V29.7666H152.086V24.8525H160.719V22.9932H152.053V21.499H162.545V26.3135H153.929V28.2559H162.894V29.7666H158.196V32.207H164.172ZM176.588 21.9307V23.624C176.588 25.6328 176.588 27.708 176.041 30.8623L174.165 30.6963C174.746 27.7412 174.746 25.5664 174.746 23.624V23.4248H166.096V21.9307H176.588ZM178.332 31.9082V33.4189H164.652V31.9082H178.332ZM191.345 20.4863V31.3271H189.486V20.4863H191.345ZM191.76 33.6846V35.1787H181.417V30.2314H183.277V33.6846H191.76ZM183.161 21.4658C185.435 21.4658 187.195 23.043 187.195 25.2178C187.195 27.4424 185.435 28.9863 183.161 28.9863C180.87 28.9863 179.11 27.4424 179.11 25.2178C179.11 23.043 180.87 21.4658 183.161 21.4658ZM183.161 23.0762C181.882 23.0762 180.903 23.9229 180.919 25.2178C180.903 26.5459 181.882 27.376 183.161 27.376C184.406 27.376 185.385 26.5459 185.385 25.2178C185.385 23.9229 184.406 23.0762 183.161 23.0762Z" fill="white"/>
</svg>
