<svg width="22" height="22" viewBox="0 0 22 22" fill="none" xmlns="http://www.w3.org/2000/svg">
<path d="M7.10418 2.2915C7.10418 2.10917 7.03175 1.9343 6.90281 1.80537C6.77388 1.67644 6.59901 1.604 6.41668 1.604C6.23434 1.604 6.05947 1.67644 5.93054 1.80537C5.80161 1.9343 5.72918 2.10917 5.72918 2.2915V3.73984C4.40918 3.84525 3.54385 4.10375 2.90768 4.74084C2.2706 5.377 2.0121 6.24325 1.90576 7.56234H20.0943C19.9879 6.24234 19.7294 5.377 19.0923 4.74084C18.4562 4.10375 17.5899 3.84525 16.2708 3.73892V2.2915C16.2708 2.10917 16.1984 1.9343 16.0695 1.80537C15.9405 1.67644 15.7657 1.604 15.5833 1.604C15.401 1.604 15.2261 1.67644 15.0972 1.80537C14.9683 1.9343 14.8958 2.10917 14.8958 2.2915V3.67842C14.2863 3.6665 13.6024 3.6665 12.8333 3.6665H9.16668C8.3976 3.6665 7.71376 3.6665 7.10418 3.67842V2.2915Z" fill="black"/>
<path fill-rule="evenodd" clip-rule="evenodd" d="M1.8335 11C1.8335 10.2309 1.8335 9.54708 1.84541 8.9375H20.1549C20.1668 9.54708 20.1668 10.2309 20.1668 11V12.8333C20.1668 16.2901 20.1668 18.0189 19.0925 19.0923C18.0182 20.1657 16.2902 20.1667 12.8335 20.1667H9.16683C5.71008 20.1667 3.98125 20.1667 2.90783 19.0923C1.83441 18.018 1.8335 16.2901 1.8335 12.8333V11ZM15.5835 12.8333C15.8266 12.8333 16.0598 12.7368 16.2317 12.5648C16.4036 12.3929 16.5002 12.1598 16.5002 11.9167C16.5002 11.6736 16.4036 11.4404 16.2317 11.2685C16.0598 11.0966 15.8266 11 15.5835 11C15.3404 11 15.1072 11.0966 14.9353 11.2685C14.7634 11.4404 14.6668 11.6736 14.6668 11.9167C14.6668 12.1598 14.7634 12.3929 14.9353 12.5648C15.1072 12.7368 15.3404 12.8333 15.5835 12.8333ZM15.5835 16.5C15.8266 16.5 16.0598 16.4034 16.2317 16.2315C16.4036 16.0596 16.5002 15.8264 16.5002 15.5833C16.5002 15.3402 16.4036 15.1071 16.2317 14.9352C16.0598 14.7632 15.8266 14.6667 15.5835 14.6667C15.3404 14.6667 15.1072 14.7632 14.9353 14.9352C14.7634 15.1071 14.6668 15.3402 14.6668 15.5833C14.6668 15.8264 14.7634 16.0596 14.9353 16.2315C15.1072 16.4034 15.3404 16.5 15.5835 16.5ZM11.9168 11.9167C11.9168 12.1598 11.8203 12.3929 11.6483 12.5648C11.4764 12.7368 11.2433 12.8333 11.0002 12.8333C10.757 12.8333 10.5239 12.7368 10.352 12.5648C10.1801 12.3929 10.0835 12.1598 10.0835 11.9167C10.0835 11.6736 10.1801 11.4404 10.352 11.2685C10.5239 11.0966 10.757 11 11.0002 11C11.2433 11 11.4764 11.0966 11.6483 11.2685C11.8203 11.4404 11.9168 11.6736 11.9168 11.9167ZM11.9168 15.5833C11.9168 15.8264 11.8203 16.0596 11.6483 16.2315C11.4764 16.4034 11.2433 16.5 11.0002 16.5C10.757 16.5 10.5239 16.4034 10.352 16.2315C10.1801 16.0596 10.0835 15.8264 10.0835 15.5833C10.0835 15.3402 10.1801 15.1071 10.352 14.9352C10.5239 14.7632 10.757 14.6667 11.0002 14.6667C11.2433 14.6667 11.4764 14.7632 11.6483 14.9352C11.8203 15.1071 11.9168 15.3402 11.9168 15.5833ZM6.41683 12.8333C6.65994 12.8333 6.8931 12.7368 7.06501 12.5648C7.23692 12.3929 7.3335 12.1598 7.3335 11.9167C7.3335 11.6736 7.23692 11.4404 7.06501 11.2685C6.8931 11.0966 6.65994 11 6.41683 11C6.17371 11 5.94056 11.0966 5.76865 11.2685C5.59674 11.4404 5.50016 11.6736 5.50016 11.9167C5.50016 12.1598 5.59674 12.3929 5.76865 12.5648C5.94056 12.7368 6.17371 12.8333 6.41683 12.8333ZM6.41683 16.5C6.65994 16.5 6.8931 16.4034 7.06501 16.2315C7.23692 16.0596 7.3335 15.8264 7.3335 15.5833C7.3335 15.3402 7.23692 15.1071 7.06501 14.9352C6.8931 14.7632 6.65994 14.6667 6.41683 14.6667C6.17371 14.6667 5.94056 14.7632 5.76865 14.9352C5.59674 15.1071 5.50016 15.3402 5.50016 15.5833C5.50016 15.8264 5.59674 16.0596 5.76865 16.2315C5.94056 16.4034 6.17371 16.5 6.41683 16.5Z" fill="black"/>
</svg>
