<svg width="80" height="80" viewBox="0 0 80 80" fill="none" xmlns="http://www.w3.org/2000/svg">
<path d="M80 40C80 62.0914 62.0914 80 40 80C17.9086 80 0 62.0914 0 40C0 17.9086 17.9086 0 40 0C62.0914 0 80 17.9086 80 40Z" fill="white"/>
<path d="M63.6468 19.3273C65.2992 17.5881 68.0126 17.5538 69.7072 19.25C71.4012 20.9465 71.4347 23.7322 69.7825 25.4719L36.3542 60.6723C35.5478 61.5212 34.4414 61.9998 33.2864 62C32.1314 62 31.0251 61.5209 30.2185 60.6723L12.2174 41.7185C10.5653 39.9789 10.5988 37.1931 12.2928 35.4966C13.9873 33.8003 16.7007 33.8346 18.3531 35.5739L33.2822 51.2964L63.6468 19.3273Z" fill="#2DDAA9"/>
</svg>
