<svg width="20" height="20" viewBox="0 0 20 20" fill="none" xmlns="http://www.w3.org/2000/svg">
<path d="M16.6665 4.99984H13.3332V3.33317C13.3332 2.40817 12.5915 1.6665 11.6665 1.6665H8.33317C7.40817 1.6665 6.6665 2.40817 6.6665 3.33317V4.99984H3.33317C2.40817 4.99984 1.67484 5.7415 1.67484 6.6665L1.6665 15.8332C1.6665 16.7582 2.40817 17.4998 3.33317 17.4998H16.6665C17.5915 17.4998 18.3332 16.7582 18.3332 15.8332V6.6665C18.3332 5.7415 17.5915 4.99984 16.6665 4.99984ZM11.6665 4.99984H8.33317V3.33317H11.6665V4.99984Z" fill="#5D5F6D"/>
<rect width="1.89328" height="23.052" transform="matrix(0.70711 -0.707103 0.70711 0.707103 2 3.11572)" fill="#5D5F6D"/>
<rect width="0.946642" height="23.052" transform="matrix(0.70711 -0.707103 0.70711 0.707103 2.94629 2.16943)" fill="white"/>
</svg>
