<svg width="20" height="20" viewBox="0 0 20 20" fill="none" xmlns="http://www.w3.org/2000/svg">
<circle cx="10" cy="10" r="9.5" fill="#F9F9F9" stroke="#E9EBF1"/>
<path d="M10 5.1907C8.54377 5.1907 7.1109 5.62051 5.84267 6.44012C5.57993 6.60992 5.23833 6.51936 5.07988 6.23779C4.92148 5.95624 5.00596 5.59014 5.26868 5.42035C6.70756 4.49044 8.33855 4 10 4C11.6615 4 13.2924 4.49044 14.7313 5.42035C14.994 5.59014 15.0785 5.95624 14.9201 6.23779C14.7617 6.51936 14.4201 6.60992 14.1573 6.44012C12.8891 5.62051 11.4562 5.1907 10 5.1907ZM6.01356 7.97791C5.85494 7.69662 5.93887 7.33062 6.20127 7.16047C7.35527 6.41255 8.6646 6.01726 9.99892 6.01628C11.3332 6.01533 12.6428 6.409 13.7976 7.15524C14.0604 7.32503 14.1454 7.69111 13.987 7.97268C13.8285 8.25415 13.4869 8.34468 13.2242 8.17501C12.2402 7.53914 11.1289 7.20622 10 7.20698C8.87106 7.20779 7.75971 7.54233 6.77635 8.17966C6.51383 8.34966 6.1723 8.2592 6.01356 7.97791ZM10 9.23373C9.19995 9.23373 8.41171 9.46774 7.71165 9.91571C7.44825 10.0843 7.10728 9.99212 6.94995 9.70989C6.79265 9.42759 6.87858 9.06219 7.142 8.89361C8.01181 8.337 8.99644 8.04303 10 8.04303C11.0036 8.04303 11.9882 8.337 12.858 8.89361C13.1214 9.06219 13.2074 9.42759 13.05 9.70989C12.8927 9.99212 12.5517 10.0843 12.2884 9.91571C11.5883 9.46774 10.8 9.23373 10 9.23373Z" fill="#AEAEB2"/>
<path d="M15.109 12.5358C15.0386 12.0669 14.6752 11.7796 14.1828 11.7796C13.5204 11.7796 13.0866 12.2896 13.0866 13.1807C13.0866 14.0951 13.5262 14.5817 14.1769 14.5817C14.6635 14.5817 15.021 14.312 15.109 13.8548L16 13.8606C15.9003 14.6461 15.2438 15.3613 14.1652 15.3613C13.028 15.3613 12.1897 14.5641 12.1897 13.1807C12.1897 11.7972 13.0455 11 14.1652 11C15.1441 11 15.8828 11.5627 16 12.5358H15.109Z" fill="#AEAEB2"/>
<path d="M9.07544 15.3031V11.0591H11.8716V11.786H9.95474V12.8177H11.6899V13.5446H9.95474V15.3031H9.07544Z" fill="#AEAEB2"/>
<path d="M8.54065 11.0591V15.3031H7.77859L5.91447 12.6066H5.8793V15.3031H5V11.0591H5.77378L7.62618 13.7556H7.66721V11.0591H8.54065Z" fill="#AEAEB2"/>
</svg>
