<svg width="38" height="38" viewBox="0 0 38 38" fill="none" xmlns="http://www.w3.org/2000/svg">
<circle cx="19" cy="19" r="19" fill="#F9F9F9"/>
<path d="M16.9717 27.8971C16.4193 27.3284 16.1432 26.6324 16.1432 25.8088C16.1432 24.9853 16.4193 24.2892 16.9717 23.7206C17.524 23.152 18.2001 22.8676 19 22.8676C19.7999 22.8676 20.476 23.152 21.0283 23.7206C21.5807 24.2892 21.8568 24.9853 21.8568 25.8088C21.8568 26.6324 21.5807 27.3284 21.0283 27.8971C20.476 28.4657 19.7999 28.75 19 28.75C18.2001 28.75 17.524 28.4657 16.9717 27.8971ZM23.0715 16.5147C24.3567 16.9853 25.5231 17.6324 26.5706 18.4559C26.9515 18.75 27.1469 19.1375 27.1568 19.6182C27.1667 20.099 26.9998 20.5155 26.6563 20.8676C26.3325 21.201 25.9325 21.3727 25.4564 21.3829C24.9803 21.3931 24.5517 21.2606 24.1708 20.9853C23.4471 20.4755 22.6472 20.0735 21.7711 19.7794C20.895 19.4853 19.9713 19.3382 19 19.3382C18.0287 19.3382 17.105 19.4853 16.2289 19.7794C15.3528 20.0735 14.5529 20.4755 13.8292 20.9853C13.4483 21.2598 13.0197 21.3873 12.5436 21.3676C12.0675 21.348 11.6675 21.1716 11.3437 20.8382C11.02 20.4853 10.8581 20.0688 10.8581 19.5888C10.8581 19.1088 11.0485 18.7214 11.4294 18.4265C12.4769 17.6029 13.6437 16.9606 14.9296 16.4994C16.2156 16.0382 17.5724 15.808 19 15.8088C20.4276 15.8096 21.7848 16.0449 23.0715 16.5147ZM25.7272 9.95588C27.8321 10.7598 29.7226 11.8971 31.3986 13.3676C31.7795 13.701 31.9795 14.1127 31.9985 14.6029C32.0175 15.0931 31.8557 15.5147 31.5128 15.8676C31.1891 16.201 30.7891 16.3727 30.313 16.3829C29.8368 16.3931 29.4083 16.241 29.0274 15.9265C27.6561 14.7696 26.1184 13.8727 24.4142 13.2359C22.71 12.599 20.9053 12.2802 19 12.2794C17.0947 12.2786 15.2903 12.5975 13.5869 13.2359C11.8835 13.8743 10.3454 14.7712 8.97259 15.9265C8.59168 16.2402 8.16316 16.3924 7.68702 16.3829C7.21089 16.3735 6.81093 16.2018 6.48716 15.8676C6.14434 15.5147 5.98246 15.0931 6.0015 14.6029C6.02055 14.1127 6.22053 13.701 6.60143 13.3676C8.27743 11.8971 10.1679 10.7598 12.2728 9.95588C14.3777 9.15196 16.6201 8.75 19 8.75C21.3799 8.75 23.6227 9.15196 25.7284 9.95588" fill="#AEAEB2"/>
</svg>
