<svg width="38" height="38" viewBox="0 0 38 38" fill="none" xmlns="http://www.w3.org/2000/svg">
<circle cx="19" cy="19" r="19" fill="#F9F9F9"/>
<path d="M13 15.32C13.6392 16.4411 13.9754 17.7094 13.9754 19C13.9754 20.2906 13.6392 21.5589 13 22.68M16.46 13.21C17.4591 14.9762 17.9841 16.9708 17.9841 19C17.9841 21.0292 17.4591 23.0238 16.46 24.79M19.91 11.1C21.2876 13.5046 22.0132 16.2274 22.0149 18.9987C22.0167 21.77 21.2945 24.4936 19.92 26.9M23.37 9C25.1099 12.0456 26.025 15.4925 26.025 19C26.025 22.5075 25.1099 25.9544 23.37 29" stroke="#AEAEB2" stroke-width="2" stroke-linecap="round" stroke-linejoin="round"/>
</svg>
