<svg width="38" height="38" viewBox="0 0 38 38" fill="none" xmlns="http://www.w3.org/2000/svg">
<circle cx="19" cy="19" r="19" fill="#F9F9F9"/>
<path d="M25.675 22.6L20.875 19L25.675 15.4C25.8147 15.2952 25.9281 15.1593 26.0062 15.0031C26.0843 14.8469 26.125 14.6747 26.125 14.5C26.125 14.3253 26.0843 14.1531 26.0062 13.9969C25.9281 13.8407 25.8147 13.7048 25.675 13.6L19.675 9.1C19.5079 8.97464 19.3091 8.89831 19.101 8.87955C18.893 8.86078 18.6838 8.90034 18.4969 8.99377C18.31 9.0872 18.1529 9.23083 18.043 9.40855C17.9332 9.58628 17.875 9.79107 17.875 10V16.75L13.675 13.6C13.4363 13.421 13.1363 13.3441 12.8409 13.3863C12.5455 13.4285 12.279 13.5863 12.1 13.825C11.921 14.0637 11.8441 14.3637 11.8863 14.6591C11.9285 14.9545 12.0863 15.221 12.325 15.4L17.125 19L12.325 22.6C12.2068 22.6886 12.1072 22.7997 12.032 22.9268C11.9567 23.0539 11.9072 23.1946 11.8863 23.3409C11.8654 23.4872 11.8735 23.6361 11.9102 23.7792C11.9469 23.9223 12.0114 24.0568 12.1 24.175C12.1886 24.2932 12.2997 24.3928 12.4268 24.468C12.5539 24.5433 12.6947 24.5928 12.8409 24.6137C12.9872 24.6346 13.1361 24.6265 13.2792 24.5898C13.4223 24.5531 13.5568 24.4886 13.675 24.4L17.875 21.25V28C17.875 28.2089 17.9332 28.4137 18.043 28.5914C18.1529 28.7692 18.31 28.9128 18.4969 29.0062C18.6838 29.0997 18.893 29.1392 19.101 29.1205C19.3091 29.1017 19.5079 29.0254 19.675 28.9L25.675 24.4C25.8147 24.2952 25.9281 24.1593 26.0062 24.0031C26.0843 23.8469 26.125 23.6747 26.125 23.5C26.125 23.3253 26.0843 23.1531 26.0062 22.9969C25.9281 22.8407 25.8147 22.7048 25.675 22.6ZM20.125 12.25L23.125 14.5L20.125 16.75V12.25ZM20.125 25.75V21.25L23.125 23.5L20.125 25.75Z" fill="#AEAEB2"/>
</svg>
