<svg width="25" height="27" viewBox="0 0 25 27" fill="none" xmlns="http://www.w3.org/2000/svg">
<g filter="url(#filter0_d_152_2065)">
<path d="M12.3333 1.6665C16.9358 1.6665 20.6667 5.39734 20.6667 9.99984C20.6667 14.6023 16.9358 18.3332 12.3333 18.3332C7.73083 18.3332 4 14.6023 4 9.99984C4 5.39734 7.73083 1.6665 12.3333 1.6665ZM12.3333 4.99984C12.1123 4.99984 11.9004 5.08763 11.7441 5.24392C11.5878 5.4002 11.5 5.61216 11.5 5.83317V9.99984C11.5 10.2208 11.5879 10.4328 11.7442 10.589L14.2442 13.089C14.4013 13.2408 14.6118 13.3248 14.8303 13.3229C15.0488 13.321 15.2578 13.2334 15.4123 13.0789C15.5669 12.9243 15.6545 12.7153 15.6564 12.4968C15.6583 12.2783 15.5743 12.0678 15.4225 11.9107L13.1667 9.65484V5.83317C13.1667 5.61216 13.0789 5.4002 12.9226 5.24392C12.7663 5.08763 12.5543 4.99984 12.3333 4.99984Z" fill="#5D5F6D"/>
</g>
<defs>
<filter id="filter0_d_152_2065" x="-1.6665" y="0" width="28" height="28" filterUnits="userSpaceOnUse" color-interpolation-filters="sRGB">
<feFlood flood-opacity="0" result="BackgroundImageFix"/>
<feColorMatrix in="SourceAlpha" type="matrix" values="0 0 0 0 0 0 0 0 0 0 0 0 0 0 0 0 0 0 127 0" result="hardAlpha"/>
<feOffset dy="4"/>
<feGaussianBlur stdDeviation="2"/>
<feComposite in2="hardAlpha" operator="out"/>
<feColorMatrix type="matrix" values="0 0 0 0 0 0 0 0 0 0 0 0 0 0 0 0 0 0 0.25 0"/>
<feBlend mode="normal" in2="BackgroundImageFix" result="effect1_dropShadow_152_2065"/>
<feBlend mode="normal" in="SourceGraphic" in2="effect1_dropShadow_152_2065" result="shape"/>
</filter>
</defs>
</svg>
