<svg width="20" height="20" viewBox="0 0 20 20" fill="none" xmlns="http://www.w3.org/2000/svg">
<circle cx="10" cy="10" r="9.5" fill="#F9F9F9" stroke="#E9EBF1"/>
<path d="M9.21987 13.8469C9.00744 13.6337 8.90123 13.3726 8.90123 13.0638C8.90123 12.755 9.00744 12.494 9.21987 12.2807C9.4323 12.0675 9.69234 11.9609 10 11.9609C10.3077 11.9609 10.5677 12.0675 10.7801 12.2807C10.9926 12.494 11.0988 12.755 11.0988 13.0638C11.0988 13.3726 10.9926 13.6337 10.7801 13.8469C10.5677 14.0601 10.3077 14.1667 10 14.1667C9.69234 14.1667 9.4323 14.0601 9.21987 13.8469ZM11.566 9.57851C12.0603 9.75498 12.5089 9.99763 12.9118 10.3065C13.0583 10.4167 13.1334 10.562 13.1372 10.7423C13.141 10.9226 13.0769 11.0788 12.9447 11.2109C12.8202 11.3359 12.6664 11.4003 12.4832 11.4041C12.3001 11.4079 12.1353 11.3582 11.9888 11.255C11.7104 11.0638 11.4028 10.9131 11.0658 10.8028C10.7289 10.6925 10.3736 10.6373 10 10.6373C9.62642 10.6373 9.27115 10.6925 8.93419 10.8028C8.59723 10.9131 8.28958 11.0638 8.01122 11.255C7.86472 11.3579 7.6999 11.4057 7.51677 11.3984C7.33364 11.391 7.17981 11.3248 7.05529 11.1998C6.93076 11.0675 6.86849 10.9113 6.86849 10.7313C6.86849 10.5513 6.94175 10.406 7.08825 10.2954C7.49113 9.9866 7.93987 9.74572 8.43447 9.57278C8.92906 9.39984 9.45091 9.31351 10 9.31381C10.5491 9.3141 11.0711 9.40234 11.566 9.57851ZM12.5874 7.11895C13.397 7.42042 14.1241 7.8469 14.7687 8.39837C14.9152 8.52337 14.9921 8.67778 14.9994 8.8616C15.0067 9.04542 14.9445 9.20351 14.8126 9.33587C14.6881 9.46087 14.5343 9.52528 14.3511 9.5291C14.168 9.53292 14.0032 9.47587 13.8567 9.35792C13.3293 8.9241 12.7379 8.58778 12.0824 8.34895C11.4269 8.11013 10.7328 7.99057 10 7.99028C9.26719 7.98998 8.57321 8.10954 7.91804 8.34895C7.26288 8.58837 6.6713 8.92469 6.1433 9.35792C5.9968 9.47557 5.83198 9.53263 5.64885 9.5291C5.46573 9.52557 5.3119 9.46116 5.18737 9.33587C5.05552 9.20351 4.99325 9.04542 5.00058 8.8616C5.0079 8.67778 5.08482 8.52337 5.23132 8.39837C5.87593 7.8469 6.60303 7.42042 7.41261 7.11895C8.22218 6.81748 9.08465 6.66675 10 6.66675C10.9154 6.66675 11.778 6.81748 12.5878 7.11895" fill="#AEAEB2"/>
</svg>
